<?xml version="1.0" encoding="UTF-8"?>
<svg id="Layer_1" data-name="Layer 1" xmlns="http://www.w3.org/2000/svg" viewBox="0 0 200 24.85">
  <defs>
    <style>
      .cls-1 {
        fill: #95827c;
      }
    </style>
  </defs>
  <path class="cls-1" d="m1.62,16.74c0-4.06,3.29-7.35,7.35-7.35,1.18,0,4.71.34,6.01,4.03l-2.26,1.27.03-.56c0-3.41-2.29-4.31-3.57-4.31h-.19c-3.01.22-4.93,3.07-4.93,6.91s2.2,6.82,4.9,7.01h.25c1.61,0,3.35-.87,4.46-2.36l.28.31c-2.05,2.36-3.88,2.39-4.99,2.39-4.06,0-7.35-3.29-7.35-7.35Z"/>
  <path class="cls-1" d="m26.24,21.95c-.28.34-.56.62-.71.74-.87.81-2.02,1.43-3.66,1.43-.31,0-.62-.03-.96-.06-2.42-.31-4.06-1.92-4.06-3.75,0-.22.03-.43.06-.65.62-2.91,3.69-3.72,5.92-4.03.84-.12,2.7-.28,3.41-1.43.15-.25.25-.62.25-1.05,0-1.4-.87-3.38-3.1-3.38h-.19c-1.12.03-3.32,1.02-3.32,4.56v.22l-2.33-.99c.81-3.04,3.91-4.09,5.67-4.16h.22c2.33,0,3.91.96,4.4,2.2.12.28.19.56.19.87,0,1.24-1.15,2.54-4.12,3.44-1.92.62-4.22,1.24-4.56,3.72v.43c0,1.15.43,3.35,2.79,3.54l.37.03c1.21,0,2.2-.59,3.22-1.67,1.12-1.21,3.04-4.56,3.22-4.84,1.21-2.02,2.39-4.09,3.32-5.18.78-.81,2.26-2.57,5.43-2.57h.22c.93.03,4.28.5,5.46,3.57l-2.08,1.33.03-.43c0-2.88-1.86-3.88-3.44-4l-.5-.03c-2.7,0-4.31,1.8-4.87,2.51-.78.96-1.8,2.6-2.23,3.32l-1.83,3.13v1.89c0,.5.03,1.3.09,1.77.12.59.56.96,1.08.96,0,0-.65.74-1.67.74-.84,0-1.64-.4-1.74-2.17Zm11.56,2.17c-3.66-.06-5.58-2.54-6.2-3.97l2.36-1.43c.12,4.65,3.04,4.96,3.81,4.96,1.83-.03,4.84-.71,4.84-3.1l-.03-.25c-.22-2.95-7.66-2.14-9.67-5.36h-.03c-.09-.22-.28-.71-.28-1.24,0-.19.03-.37.06-.56.34-.9,1.21-1.55,1.21-1.55v.43c0,.65.16,1.15.4,1.49,1.95,2.39,9.39,1.4,9.74,5.95l.03.25c0,2.48-2.85,4.37-6.14,4.37h-.09Z"/>
  <path class="cls-1" d="m51.47,24.09c-1.49,0-2.95-.4-4.09-1.09-1.09-.68-1.83-1.89-2.11-2.88l2.23-1.12-.03.62c0,3.66,3.22,4,3.97,4.03h.28c1.77,0,4.53-.81,4.53-3.1v-.25c-.28-3.38-10.2-1.77-10.2-7.22v-.09c.06-2.05,2.23-3.6,5.43-3.6,1.27,0,2.45.31,3.41.84.84.47,1.77,1.33,2.2,2.7l-2.14,1.18c.03-.25.03-.46.03-.68,0-2.79-2.42-3.66-3.53-3.66h-.09c-2.17,0-3.81.93-3.88,2.33v.09c0,4.15,9.83,2.05,10.2,7.32v.22c0,2.48-2.79,4.37-6.05,4.37h-.15Z"/>
  <path class="cls-1" d="m68.3,21.89c-.93,1.21-2.23,2.2-4.37,2.2-.31,0-.62-.03-.96-.06-2.45-.31-4.06-1.95-4.06-3.75,0-.22.03-.43.06-.65.65-2.92,3.88-3.32,5.98-3.97.81-.25,3.32-.65,3.35-1.49l.03-.43c0-1.43-.37-3.94-3.07-4-1.05,0-3.38.71-3.78,4.81l-2.11-1.09c1.43-3.38,4.03-4.06,5.8-4.06h.12c4.9.09,5.24,3.81,5.24,5.55v5.52c0,.34.03.9.09,1.43.06.5.31,1.09.84,1.21l.16.03c.25,0,.53-.12.9-.25,0,0-.81,1.21-2.48,1.21-.81,0-1.64-.4-1.74-2.2Zm0-.62v-6.39c-1.61,1.33-6.39,1.05-6.88,4.74v.4c0,1.12.4,3.38,2.79,3.57h.28c1.61,0,2.98-.99,3.81-2.33Z"/>
  <path class="cls-1" d="m84.89,24.09s1.77-.5,1.77-2.05v-5.3c0-3.81-.47-6.79-4-6.91h-.09c-1.71,0-3.63.84-4.81,2.7v9.52c0,1.55,1.77,2.05,1.77,2.05h-5.74s1.74-.5,1.74-2.05v-9.8c0-1.55-1.77-1.98-1.77-1.98,0,0,2.67-.15,4-.87v2.39c1.12-1.43,2.73-2.36,4.9-2.39h.28c4.81,0,5.92,3.35,5.92,7.35v5.3c0,1.55,1.77,2.05,1.77,2.05h-5.74Z"/>
  <path class="cls-1" d="m104.11,22.07c-.06.06-2.11,2.05-4.9,2.05-4.06,0-7.35-3.29-7.35-7.35s3.29-7.38,7.35-7.38c1.71,0,3.13.59,4.22,1.55.12.12.34.25.46.25s.22-.09.22-.25V.03c1.33.71,3.97.87,3.97.87,0,0-1.74.43-1.74,1.98v7.35c0,.81-.09,2.67-1.12,2.67h-.03c-1.3-.03-2.2-3.04-5.58-3.04h-.4c-2.98.19-4.93,3.07-4.93,6.91s2.23,6.67,4.93,6.88l.34.03c1.86,0,3.72-1.36,5.46-2.95,2.45-2.2,5.21-6.48,5.21-6.48v-1.98c0-1.55-1.74-1.98-1.74-1.98,0,0,2.64-.19,3.97-.87v2.36c.68-.71,2.39-2.39,4.4-2.39l.47.03c1.83.22,2.88,1.05,3.22,1.8l-1.98,1.86c-.06-2.39-1.36-2.98-2.39-2.98-.4,0-.78.09-1.02.19-3.19,1.27-5.98,6.88-8.81,9.71v1.15c0,1.55,1.74,1.95,1.74,1.95h-.37c-1.95,0-3.6,1.02-3.6,1.02v-2.05Zm4.37,2.05s1.74-.5,1.74-2.05l.03-6.02s.46-.93,1.12-1.58c.25-.25.43-.34.62-.34.28,0,.46.28.46.59v7.35c0,1.55,1.77,2.05,1.77,2.05h-5.74Z"/>
  <path class="cls-1" d="m131.17,21.89c-.93,1.21-2.23,2.2-4.37,2.2-.31,0-.62-.03-.96-.06-2.45-.31-4.06-1.95-4.06-3.75,0-.22.03-.43.06-.65.65-2.92,3.88-3.32,5.98-3.97.81-.25,3.32-.65,3.35-1.49l.03-.43c0-1.43-.37-3.94-3.07-4-1.05,0-3.38.71-3.78,4.81l-2.11-1.09c1.43-3.38,4.03-4.06,5.8-4.06h.12c4.9.09,5.24,3.81,5.24,5.55v5.52c0,.34.03.9.09,1.43.06.5.31,1.09.84,1.21l.15.03c.25,0,.53-.12.9-.25,0,0-.81,1.21-2.48,1.21-.81,0-1.64-.4-1.74-2.2Zm0-.62v-6.39c-1.61,1.33-6.39,1.05-6.88,4.74v.4c0,1.12.4,3.38,2.79,3.57h.28c1.61,0,2.98-.99,3.81-2.33Z"/>
  <path class="cls-1" d="m157.67,24.09s1.77-.5,1.77-2.05v-5.3c0-3.81-.46-6.79-4-6.91h-.09c-1.71,0-3.63.84-4.81,2.7v9.52c0,1.55,1.77,2.05,1.77,2.05h-5.74s1.74-.5,1.74-2.05v-9.8c0-1.55-1.77-1.98-1.77-1.98,0,0,2.67-.15,4-.87v2.39c1.12-1.43,2.73-2.36,4.9-2.39h.28c4.81,0,5.92,3.35,5.92,7.35v5.3c0,1.55,1.77,2.05,1.77,2.05h-5.74Z"/>
  <path class="cls-1" d="m164.65,16.77c0-4.06,3.29-7.35,7.35-7.35h.03c2.05,0,5.18,1.15,5.3,3.38v.09c0,.9-.93,1.61-2.26,2.11-1.21.43-2.67.46-3.97.9-2.14.74-2.42,2.64-2.42,3.6,0,.37.03.62.03.62-.16-.59-.22-1.12-.22-1.55,0-4.46,6.36-3.16,7.01-6.01l.03-.28c0-.9-.84-2.42-3.32-2.42h-.22c-2.48.19-4.22,2.17-4.74,5.05-.12.71-.19,1.08-.19,1.86,0,3.81,2.23,6.63,4.93,6.85l.4.03c4.28,0,5.64-5.15,8.4-9.27v-2.11c0-1.55-1.77-1.98-1.77-1.98,0,0,2.67-.16,4-.87v2.17c.5-.68,2.29-2.2,4.5-2.2h.37c1.83.19,2.88,1.12,3.22,1.83l-1.98,1.61v-.34c0-1.77-1.05-2.57-2.14-2.57h-.06c-2.26.06-3.94,2.23-4.59,3.04-1.55,1.95-2.76,4.28-2.88,4.53-1.77,3.26-3.41,6.64-7.47,6.64s-7.35-3.29-7.35-7.35Zm14.39,7.35s1.77-.5,1.77-2.05v-5.83s.46-.99,1.21-1.71c.22-.22.4-.31.56-.31.28,0,.46.31.46.65v7.19c0,1.55,1.74,2.05,1.74,2.05h-5.74Z"/>
  <path class="cls-1" d="m192.36,24.09s1.77-.5,1.77-2.05v-9.8c0-1.55-1.77-1.98-1.77-1.98,0,0,2.67-.15,3.97-.87v12.65c0,1.55,1.77,2.05,1.77,2.05h-5.74Zm1.3-17.92c0-.71.59-1.3,1.3-1.3s1.3.59,1.3,1.3-.56,1.3-1.3,1.3-1.3-.59-1.3-1.3Z"/>
</svg>