<?xml version="1.0" encoding="UTF-8"?>
<svg id="Layer_1" data-name="Layer 1" xmlns="http://www.w3.org/2000/svg" viewBox="0 0 100 12.25">
  <defs>
    <style>
      .cls-1 {
        fill: #95827c;
      }
    </style>
  </defs>
  <path class="cls-1" d="m.1,8.5c0-2.07,1.67-3.74,3.74-3.74.6,0,2.4.17,3.06,2.05l-1.15.65.02-.28c0-1.73-1.17-2.19-1.81-2.19h-.09c-1.53.11-2.51,1.56-2.51,3.52s1.12,3.47,2.49,3.56h.13c.82,0,1.7-.44,2.27-1.2l.14.16c-1.04,1.2-1.97,1.21-2.54,1.21C1.77,12.23.1,10.56.1,8.5Z"/>
  <path class="cls-1" d="m12.61,11.15c-.14.17-.28.32-.36.38-.44.41-1.02.73-1.86.73-.16,0-.32-.02-.49-.03-1.23-.16-2.07-.98-2.07-1.91,0-.11.02-.22.03-.33.32-1.48,1.88-1.89,3.01-2.05.43-.06,1.37-.14,1.73-.73.08-.13.13-.32.13-.54,0-.71-.44-1.72-1.58-1.72h-.09c-.57.02-1.69.52-1.69,2.32v.11l-1.18-.5c.41-1.55,1.99-2.08,2.88-2.11h.11c1.18,0,1.99.49,2.24,1.12.06.14.09.28.09.44,0,.63-.58,1.29-2.1,1.75-.98.32-2.14.63-2.32,1.89v.22c0,.58.22,1.7,1.42,1.8l.19.02c.61,0,1.12-.3,1.64-.85.57-.61,1.54-2.32,1.64-2.46.61-1.02,1.21-2.08,1.69-2.63.39-.41,1.15-1.31,2.76-1.31h.11c.47.02,2.18.25,2.77,1.81l-1.06.68.02-.22c0-1.47-.95-1.97-1.75-2.03l-.25-.02c-1.37,0-2.19.91-2.48,1.28-.39.49-.91,1.32-1.14,1.69l-.93,1.59v.96c0,.25.02.66.05.9.06.3.28.49.55.49,0,0-.33.38-.85.38-.43,0-.84-.2-.88-1.1Zm5.88,1.1c-1.86-.03-2.84-1.29-3.15-2.02l1.2-.73c.06,2.36,1.55,2.52,1.94,2.52.93-.02,2.46-.36,2.46-1.58l-.02-.13c-.11-1.5-3.89-1.09-4.92-2.73h-.02c-.05-.11-.14-.36-.14-.63,0-.09.02-.19.03-.28.17-.46.61-.79.61-.79v.22c0,.33.08.58.21.76.99,1.21,4.78.71,4.95,3.03l.02.13c0,1.26-1.45,2.22-3.12,2.22h-.05Z"/>
  <path class="cls-1" d="m25.44,12.23c-.76,0-1.5-.21-2.08-.55-.55-.35-.93-.96-1.07-1.47l1.14-.57-.02.32c0,1.86,1.64,2.03,2.02,2.05h.14c.9,0,2.3-.41,2.3-1.58v-.13c-.14-1.72-5.19-.9-5.19-3.67v-.05c.03-1.04,1.14-1.83,2.76-1.83.65,0,1.25.16,1.73.43.43.24.9.68,1.12,1.37l-1.09.6c.02-.13.02-.24.02-.35,0-1.42-1.23-1.86-1.8-1.86h-.05c-1.1,0-1.94.47-1.97,1.18v.05c0,2.11,5,1.04,5.19,3.72v.11c0,1.26-1.42,2.22-3.07,2.22h-.08Z"/>
  <path class="cls-1" d="m34,11.11c-.47.61-1.14,1.12-2.22,1.12-.16,0-.32-.02-.49-.03-1.25-.16-2.07-.99-2.07-1.91,0-.11.02-.22.03-.33.33-1.48,1.97-1.69,3.04-2.02.41-.13,1.69-.33,1.7-.76l.02-.22c0-.72-.19-2-1.56-2.03-.54,0-1.72.36-1.92,2.44l-1.07-.55c.72-1.72,2.05-2.07,2.95-2.07h.06c2.49.05,2.66,1.94,2.66,2.82v2.81c0,.17.02.46.05.73.03.25.16.55.43.61l.08.02c.13,0,.27-.06.46-.13,0,0-.41.61-1.26.61-.41,0-.84-.21-.88-1.12Zm0-.32v-3.25c-.82.68-3.25.54-3.5,2.41v.2c0,.57.21,1.72,1.42,1.81h.14c.82,0,1.51-.5,1.94-1.18Z"/>
  <path class="cls-1" d="m42.44,12.23s.9-.25.9-1.04v-2.7c0-1.94-.24-3.45-2.03-3.52h-.05c-.87,0-1.84.43-2.44,1.37v4.84c0,.79.9,1.04.9,1.04h-2.92s.88-.25.88-1.04v-4.98c0-.79-.9-1.01-.9-1.01,0,0,1.36-.08,2.03-.44v1.21c.57-.73,1.39-1.2,2.49-1.21h.14c2.44,0,3.01,1.7,3.01,3.74v2.7c0,.79.9,1.04.9,1.04h-2.92Z"/>
  <path class="cls-1" d="m52.21,11.21s-1.07,1.04-2.49,1.04c-2.07,0-3.74-1.67-3.74-3.74s1.67-3.75,3.74-3.75c.87,0,1.59.3,2.14.79.06.06.17.13.24.13s.11-.05.11-.13V0c.68.36,2.02.44,2.02.44,0,0-.88.22-.88,1.01v3.74c0,.41-.05,1.36-.57,1.36h-.02c-.66-.02-1.12-1.55-2.84-1.55h-.2c-1.51.09-2.51,1.56-2.51,3.52s1.14,3.39,2.51,3.5l.17.02c.95,0,1.89-.69,2.77-1.5,1.25-1.12,2.65-3.3,2.65-3.3v-1.01c0-.79-.88-1.01-.88-1.01,0,0,1.34-.09,2.02-.44v1.2c.35-.36,1.21-1.21,2.24-1.21l.24.02c.93.11,1.47.54,1.64.91l-1.01.95c-.03-1.21-.69-1.51-1.21-1.51-.21,0-.39.05-.52.09-1.62.65-3.04,3.5-4.48,4.93v.58c0,.79.88.99.88.99h-.19c-.99,0-1.83.52-1.83.52v-1.04Zm2.22,1.04s.88-.25.88-1.04l.02-3.06s.24-.47.57-.8c.13-.13.22-.17.32-.17.14,0,.24.14.24.3v3.74c0,.79.9,1.04.9,1.04h-2.92Z"/>
  <path class="cls-1" d="m65.97,11.11c-.47.61-1.14,1.12-2.22,1.12-.16,0-.31-.02-.49-.03-1.25-.16-2.07-.99-2.07-1.91,0-.11.02-.22.03-.33.33-1.48,1.97-1.69,3.04-2.02.41-.13,1.69-.33,1.7-.76l.02-.22c0-.72-.19-2-1.56-2.03-.54,0-1.72.36-1.92,2.44l-1.07-.55c.73-1.72,2.05-2.07,2.95-2.07h.06c2.49.05,2.66,1.94,2.66,2.82v2.81c0,.17.02.46.05.73.03.25.16.55.43.61l.08.02c.13,0,.27-.06.46-.13,0,0-.41.61-1.26.61-.41,0-.84-.21-.88-1.12Zm0-.32v-3.25c-.82.68-3.25.54-3.5,2.41v.2c0,.57.21,1.72,1.42,1.81h.14c.82,0,1.51-.5,1.94-1.18Z"/>
  <path class="cls-1" d="m79.45,12.23s.9-.25.9-1.04v-2.7c0-1.94-.24-3.45-2.03-3.52h-.05c-.87,0-1.84.43-2.44,1.37v4.84c0,.79.9,1.04.9,1.04h-2.92s.88-.25.88-1.04v-4.98c0-.79-.9-1.01-.9-1.01,0,0,1.36-.08,2.03-.44v1.21c.57-.73,1.39-1.2,2.49-1.21h.14c2.44,0,3.01,1.7,3.01,3.74v2.7c0,.79.9,1.04.9,1.04h-2.92Z"/>
  <path class="cls-1" d="m82.99,8.51c0-2.07,1.67-3.74,3.74-3.74h.02c1.04,0,2.63.58,2.7,1.72v.05c0,.46-.47.82-1.15,1.07-.61.22-1.36.24-2.02.46-1.09.38-1.23,1.34-1.23,1.83,0,.19.02.32.02.32-.08-.3-.11-.57-.11-.79,0-2.27,3.23-1.61,3.56-3.06l.02-.14c0-.46-.43-1.23-1.69-1.23h-.11c-1.26.09-2.14,1.1-2.41,2.57-.06.36-.09.55-.09.95,0,1.94,1.14,3.37,2.51,3.48l.21.02c2.18,0,2.87-2.62,4.27-4.71v-1.07c0-.79-.9-1.01-.9-1.01,0,0,1.36-.08,2.03-.44v1.1c.25-.35,1.17-1.12,2.29-1.12h.19c.93.09,1.47.57,1.64.93l-1.01.82v-.17c0-.9-.54-1.31-1.09-1.31h-.03c-1.15.03-2,1.14-2.33,1.55-.79.99-1.4,2.18-1.47,2.3-.9,1.66-1.73,3.37-3.8,3.37s-3.74-1.67-3.74-3.74Zm7.32,3.74s.9-.25.9-1.04v-2.96s.24-.5.61-.87c.11-.11.21-.16.28-.16.14,0,.24.16.24.33v3.66c0,.79.88,1.04.88,1.04h-2.92Z"/>
  <path class="cls-1" d="m97.08,12.23s.9-.25.9-1.04v-4.98c0-.79-.9-1.01-.9-1.01,0,0,1.36-.08,2.02-.44v6.43c0,.79.9,1.04.9,1.04h-2.92Zm.66-9.11c0-.36.3-.66.66-.66s.66.3.66.66-.28.66-.66.66-.66-.3-.66-.66Z"/>
</svg>