<?xml version="1.0" encoding="utf-8"?>
<!-- Generator: Adobe Illustrator 27.4.1, SVG Export Plug-In . SVG Version: 6.00 Build 0)  -->
<svg version="1.1" id="Layer_1" xmlns="http://www.w3.org/2000/svg" xmlns:xlink="http://www.w3.org/1999/xlink" x="0px" y="0px"
	 viewBox="0 0 50 6.1" style="enable-background:new 0 0 50 6.1;" xml:space="preserve">
<style type="text/css">
	.st0{fill:#FFF5EE;}
</style>
<g>
	<path class="st0" d="M0.3,4.2c0-1,0.8-1.8,1.8-1.8c0.3,0,1.2,0.1,1.5,1L3.1,3.7l0-0.1c0-0.9-0.6-1.1-0.9-1.1h0
		C1.4,2.5,0.9,3.3,0.9,4.2c0,1,0.6,1.7,1.2,1.8h0.1C2.6,6,3,5.8,3.3,5.4l0.1,0.1c-0.5,0.6-1,0.6-1.3,0.6C1.1,6.1,0.3,5.2,0.3,4.2z"
		/>
	<path class="st0" d="M6.5,5.5C6.4,5.6,6.3,5.7,6.3,5.7C6.1,5.9,5.8,6.1,5.4,6.1c-0.1,0-0.2,0-0.2,0c-0.6-0.1-1-0.5-1-0.9
		c0-0.1,0-0.1,0-0.2c0.2-0.7,0.9-0.9,1.5-1c0.2,0,0.7-0.1,0.9-0.4c0-0.1,0.1-0.2,0.1-0.3c0-0.4-0.2-0.9-0.8-0.9h0
		c-0.3,0-0.8,0.3-0.8,1.1v0.1L4.3,3.4c0.2-0.8,1-1,1.4-1h0.1c0.6,0,1,0.2,1.1,0.6c0,0.1,0,0.1,0,0.2c0,0.3-0.3,0.6-1,0.9
		C5.4,4.2,4.8,4.3,4.7,4.9v0.1c0,0.3,0.1,0.8,0.7,0.9l0.1,0c0.3,0,0.6-0.1,0.8-0.4c0.3-0.3,0.8-1.1,0.8-1.2C7.5,3.8,7.8,3.3,8,3
		c0.2-0.2,0.6-0.6,1.4-0.6h0.1c0.2,0,1.1,0.1,1.4,0.9l-0.5,0.3l0-0.1c0-0.7-0.5-1-0.9-1l-0.1,0c-0.7,0-1.1,0.5-1.2,0.6
		C7.9,3.4,7.6,3.8,7.5,3.9L7,4.7v0.5c0,0.1,0,0.3,0,0.4c0,0.1,0.1,0.2,0.3,0.2c0,0-0.2,0.2-0.4,0.2C6.7,6.1,6.5,6,6.5,5.5z M9.4,6.1
		c-0.9,0-1.4-0.6-1.6-1l0.6-0.4c0,1.2,0.8,1.2,1,1.2c0.5,0,1.2-0.2,1.2-0.8l0-0.1c-0.1-0.7-1.9-0.5-2.4-1.3h0c0-0.1-0.1-0.2-0.1-0.3
		c0,0,0-0.1,0-0.1c0.1-0.2,0.3-0.4,0.3-0.4V3c0,0.2,0,0.3,0.1,0.4C9,4,10.9,3.8,10.9,4.9l0,0.1C10.9,5.6,10.2,6.1,9.4,6.1L9.4,6.1z"
		/>
	<path class="st0" d="M12.8,6.1c-0.4,0-0.7-0.1-1-0.3c-0.3-0.2-0.5-0.5-0.5-0.7l0.6-0.3l0,0.2c0,0.9,0.8,1,1,1h0.1
		C13.3,6,14,5.8,14,5.2V5.1c-0.1-0.8-2.6-0.4-2.6-1.8v0c0-0.5,0.6-0.9,1.4-0.9c0.3,0,0.6,0.1,0.9,0.2c0.2,0.1,0.4,0.3,0.6,0.7
		l-0.5,0.3c0-0.1,0-0.1,0-0.2c0-0.7-0.6-0.9-0.9-0.9h0c-0.5,0-1,0.2-1,0.6v0c0,1,2.5,0.5,2.6,1.8V5C14.4,5.6,13.7,6.1,12.8,6.1
		L12.8,6.1z"/>
	<path class="st0" d="M17.1,5.5c-0.2,0.3-0.6,0.6-1.1,0.6c-0.1,0-0.2,0-0.2,0c-0.6-0.1-1-0.5-1-0.9c0-0.1,0-0.1,0-0.2
		c0.2-0.7,1-0.8,1.5-1c0.2-0.1,0.8-0.2,0.8-0.4l0-0.1c0-0.4-0.1-1-0.8-1c-0.3,0-0.9,0.2-1,1.2l-0.5-0.3c0.4-0.8,1-1,1.5-1h0
		c1.2,0,1.3,1,1.3,1.4v1.4c0,0.1,0,0.2,0,0.4c0,0.1,0.1,0.3,0.2,0.3l0,0c0.1,0,0.1,0,0.2-0.1c0,0-0.2,0.3-0.6,0.3
		C17.3,6.1,17.1,6,17.1,5.5z M17.1,5.4V3.8c-0.4,0.3-1.6,0.3-1.7,1.2V5c0,0.3,0.1,0.8,0.7,0.9h0.1C16.5,5.9,16.8,5.7,17.1,5.4z"/>
	<path class="st0" d="M21.2,6.1c0,0,0.4-0.1,0.4-0.5V4.2c0-1-0.1-1.7-1-1.7h0c-0.4,0-0.9,0.2-1.2,0.7v2.4c0,0.4,0.4,0.5,0.4,0.5
		h-1.4c0,0,0.4-0.1,0.4-0.5V3.1c0-0.4-0.4-0.5-0.4-0.5s0.7,0,1-0.2V3c0.3-0.4,0.7-0.6,1.2-0.6h0.1c1.2,0,1.5,0.8,1.5,1.8v1.3
		c0,0.4,0.4,0.5,0.4,0.5H21.2z"/>
	<path class="st0" d="M26.1,5.6c0,0-0.5,0.5-1.2,0.5c-1,0-1.8-0.8-1.8-1.8c0-1,0.8-1.9,1.8-1.9c0.4,0,0.8,0.1,1.1,0.4
		c0,0,0.1,0.1,0.1,0.1s0.1,0,0.1-0.1V0c0.3,0.2,1,0.2,1,0.2s-0.4,0.1-0.4,0.5v1.8c0,0.2,0,0.7-0.3,0.7h0c-0.3,0-0.6-0.8-1.4-0.8
		h-0.1c-0.7,0-1.2,0.8-1.2,1.7c0,1,0.6,1.7,1.2,1.7l0.1,0c0.5,0,0.9-0.3,1.4-0.7c0.6-0.6,1.3-1.6,1.3-1.6V3.1c0-0.4-0.4-0.5-0.4-0.5
		s0.7,0,1-0.2V3c0.2-0.2,0.6-0.6,1.1-0.6l0.1,0c0.5,0.1,0.7,0.3,0.8,0.5l-0.5,0.5c0-0.6-0.3-0.7-0.6-0.7c-0.1,0-0.2,0-0.3,0
		C28,2.9,27.3,4.3,26.6,5v0.3c0,0.4,0.4,0.5,0.4,0.5H27c-0.5,0-0.9,0.3-0.9,0.3V5.6z M27.2,6.1c0,0,0.4-0.1,0.4-0.5l0-1.5
		c0,0,0.1-0.2,0.3-0.4C28,3.6,28,3.6,28,3.6c0.1,0,0.1,0.1,0.1,0.1v1.8c0,0.4,0.4,0.5,0.4,0.5H27.2z"/>
	<path class="st0" d="M32.9,5.5c-0.2,0.3-0.6,0.6-1.1,0.6c-0.1,0-0.2,0-0.2,0c-0.6-0.1-1-0.5-1-0.9c0-0.1,0-0.1,0-0.2
		c0.2-0.7,1-0.8,1.5-1c0.2-0.1,0.8-0.2,0.8-0.4l0-0.1c0-0.4-0.1-1-0.8-1c-0.3,0-0.9,0.2-1,1.2l-0.5-0.3c0.4-0.8,1-1,1.5-1h0
		c1.2,0,1.3,1,1.3,1.4v1.4c0,0.1,0,0.2,0,0.4c0,0.1,0.1,0.3,0.2,0.3l0,0c0.1,0,0.1,0,0.2-0.1c0,0-0.2,0.3-0.6,0.3
		C33.1,6.1,32.9,6,32.9,5.5z M32.9,5.4V3.8c-0.4,0.3-1.6,0.3-1.7,1.2V5c0,0.3,0.1,0.8,0.7,0.9h0.1C32.3,5.9,32.7,5.7,32.9,5.4z"/>
	<path class="st0" d="M39.5,6.1c0,0,0.4-0.1,0.4-0.5V4.2c0-1-0.1-1.7-1-1.7h0c-0.4,0-0.9,0.2-1.2,0.7v2.4c0,0.4,0.4,0.5,0.4,0.5
		h-1.4c0,0,0.4-0.1,0.4-0.5V3.1c0-0.4-0.4-0.5-0.4-0.5s0.7,0,1-0.2V3C38,2.6,38.4,2.4,39,2.4h0.1c1.2,0,1.5,0.8,1.5,1.8v1.3
		c0,0.4,0.4,0.5,0.4,0.5H39.5z"/>
	<path class="st0" d="M41.3,4.2c0-1,0.8-1.8,1.8-1.8h0c0.5,0,1.3,0.3,1.3,0.9v0c0,0.2-0.2,0.4-0.6,0.5c-0.3,0.1-0.7,0.1-1,0.2
		c-0.5,0.2-0.6,0.7-0.6,0.9c0,0.1,0,0.2,0,0.2c0-0.1-0.1-0.3-0.1-0.4c0-1.1,1.6-0.8,1.8-1.5l0-0.1c0-0.2-0.2-0.6-0.8-0.6h-0.1
		c-0.6,0-1.1,0.5-1.2,1.3c0,0.2,0,0.3,0,0.5c0,1,0.6,1.7,1.2,1.7l0.1,0c1.1,0,1.4-1.3,2.1-2.3V3.1c0-0.4-0.4-0.5-0.4-0.5
		s0.7,0,1-0.2v0.5c0.1-0.2,0.6-0.6,1.1-0.6h0.1c0.5,0,0.7,0.3,0.8,0.5l-0.5,0.4V3.2c0-0.4-0.3-0.6-0.5-0.6h0c-0.6,0-1,0.6-1.2,0.8
		c-0.4,0.5-0.7,1.1-0.7,1.1c-0.4,0.8-0.9,1.7-1.9,1.7S41.3,5.3,41.3,4.2z M44.9,6.1c0,0,0.4-0.1,0.4-0.5V4.1c0,0,0.1-0.2,0.3-0.4
		c0.1-0.1,0.1-0.1,0.1-0.1c0.1,0,0.1,0.1,0.1,0.2v1.8c0,0.4,0.4,0.5,0.4,0.5H44.9z"/>
	<path class="st0" d="M48.3,6.1c0,0,0.4-0.1,0.4-0.5V3.1c0-0.4-0.4-0.5-0.4-0.5s0.7,0,1-0.2v3.2c0,0.4,0.4,0.5,0.4,0.5H48.3z
		 M48.6,1.6c0-0.2,0.1-0.3,0.3-0.3c0.2,0,0.3,0.1,0.3,0.3s-0.1,0.3-0.3,0.3C48.8,1.9,48.6,1.7,48.6,1.6z"/>
</g>
</svg>
