<?xml version="1.0" encoding="utf-8"?>
<!-- Generator: Adobe Illustrator 27.4.1, SVG Export Plug-In . SVG Version: 6.00 Build 0)  -->
<svg version="1.1" id="Layer_1" xmlns="http://www.w3.org/2000/svg" xmlns:xlink="http://www.w3.org/1999/xlink" x="0px" y="0px"
	 viewBox="0 0 200 24.9" style="enable-background:new 0 0 200 24.9;" xml:space="preserve">
<style type="text/css">
	.st0{fill:#515151;}
</style>
<path class="st0" d="M1.6,16.7c0-4.1,3.3-7.4,7.4-7.4c1.2,0,4.7,0.3,6,4l-2.3,1.3l0-0.6c0-3.4-2.3-4.3-3.6-4.3H9
	c-3,0.2-4.9,3.1-4.9,6.9s2.2,6.8,4.9,7h0.2c1.6,0,3.4-0.9,4.5-2.4l0.3,0.3c-2.1,2.4-3.9,2.4-5,2.4C4.9,24.1,1.6,20.8,1.6,16.7
	L1.6,16.7z"/>
<path class="st0" d="M26.2,22c-0.3,0.3-0.6,0.6-0.7,0.7c-0.9,0.8-2,1.4-3.7,1.4c-0.3,0-0.6,0-1-0.1c-2.4-0.3-4.1-1.9-4.1-3.8
	c0-0.2,0-0.4,0.1-0.6c0.6-2.9,3.7-3.7,5.9-4c0.8-0.1,2.7-0.3,3.4-1.4c0.1-0.2,0.2-0.6,0.2-1.1c0-1.4-0.9-3.4-3.1-3.4h-0.2
	c-1.1,0-3.3,1-3.3,4.6v0.2l-2.3-1c0.8-3,3.9-4.1,5.7-4.2h0.2c2.3,0,3.9,1,4.4,2.2c0.1,0.3,0.2,0.6,0.2,0.9c0,1.2-1.1,2.5-4.1,3.4
	c-1.9,0.6-4.2,1.2-4.6,3.7v0.4c0,1.1,0.4,3.4,2.8,3.5l0.4,0c1.2,0,2.2-0.6,3.2-1.7c1.1-1.2,3-4.6,3.2-4.8c1.2-2,2.4-4.1,3.3-5.2
	c0.8-0.8,2.3-2.6,5.4-2.6h0.2c0.9,0,4.3,0.5,5.5,3.6l-2.1,1.3l0-0.4c0-2.9-1.9-3.9-3.4-4l-0.5,0c-2.7,0-4.3,1.8-4.9,2.5
	c-0.8,1-1.8,2.6-2.2,3.3l-1.8,3.1v1.9c0,0.5,0,1.3,0.1,1.8c0.1,0.6,0.6,1,1.1,1c0,0-0.6,0.7-1.7,0.7C27.1,24.1,26.3,23.7,26.2,22
	L26.2,22z M37.8,24.1c-3.7-0.1-5.6-2.5-6.2-4l2.4-1.4c0.1,4.6,3,5,3.8,5c1.8,0,4.8-0.7,4.8-3.1l0-0.2c-0.2-3-7.7-2.1-9.7-5.4h0
	c-0.1-0.2-0.3-0.7-0.3-1.2c0-0.2,0-0.4,0.1-0.6c0.3-0.9,1.2-1.6,1.2-1.6V12c0,0.6,0.2,1.1,0.4,1.5c2,2.4,9.4,1.4,9.7,5.9l0,0.2
	c0,2.5-2.8,4.4-6.1,4.4L37.8,24.1L37.8,24.1z"/>
<path class="st0" d="M51.5,24.1c-1.5,0-3-0.4-4.1-1.1c-1.1-0.7-1.8-1.9-2.1-2.9l2.2-1.1l0,0.6c0,3.7,3.2,4,4,4h0.3
	c1.8,0,4.5-0.8,4.5-3.1v-0.2C56,16.9,46,18.5,46,13.1V13c0.1-2.1,2.2-3.6,5.4-3.6c1.3,0,2.5,0.3,3.4,0.8c0.8,0.5,1.8,1.3,2.2,2.7
	L55,14.1c0-0.2,0-0.5,0-0.7c0-2.8-2.4-3.7-3.5-3.7h-0.1c-2.2,0-3.8,0.9-3.9,2.3v0.1c0,4.2,9.8,2.1,10.2,7.3v0.2c0,2.5-2.8,4.4-6,4.4
	L51.5,24.1L51.5,24.1z"/>
<path class="st0" d="M68.3,21.9c-0.9,1.2-2.2,2.2-4.4,2.2c-0.3,0-0.6,0-1-0.1c-2.5-0.3-4.1-2-4.1-3.8c0-0.2,0-0.4,0.1-0.6
	c0.7-2.9,3.9-3.3,6-4c0.8-0.2,3.3-0.6,3.3-1.5l0-0.4c0-1.4-0.4-3.9-3.1-4c-1.1,0-3.4,0.7-3.8,4.8l-2.1-1.1c1.4-3.4,4-4.1,5.8-4.1
	h0.1c4.9,0.1,5.2,3.8,5.2,5.6v5.5c0,0.3,0,0.9,0.1,1.4c0.1,0.5,0.3,1.1,0.8,1.2l0.2,0c0.2,0,0.5-0.1,0.9-0.2c0,0-0.8,1.2-2.5,1.2
	C69.2,24.1,68.4,23.7,68.3,21.9L68.3,21.9z M68.3,21.3v-6.4c-1.6,1.3-6.4,1.1-6.9,4.7V20c0,1.1,0.4,3.4,2.8,3.6h0.3
	C66.1,23.6,67.5,22.6,68.3,21.3L68.3,21.3z"/>
<path class="st0" d="M84.9,24.1c0,0,1.8-0.5,1.8-2v-5.3c0-3.8-0.5-6.8-4-6.9h-0.1c-1.7,0-3.6,0.8-4.8,2.7v9.5c0,1.5,1.8,2,1.8,2
	h-5.7c0,0,1.7-0.5,1.7-2v-9.8c0-1.6-1.8-2-1.8-2s2.7-0.1,4-0.9v2.4c1.1-1.4,2.7-2.4,4.9-2.4h0.3c4.8,0,5.9,3.3,5.9,7.3v5.3
	c0,1.5,1.8,2,1.8,2L84.9,24.1L84.9,24.1z"/>
<path class="st0" d="M104.1,22.1c-0.1,0.1-2.1,2-4.9,2c-4.1,0-7.3-3.3-7.3-7.4s3.3-7.4,7.3-7.4c1.7,0,3.1,0.6,4.2,1.6
	c0.1,0.1,0.3,0.2,0.5,0.2s0.2-0.1,0.2-0.2V0c1.3,0.7,4,0.9,4,0.9s-1.7,0.4-1.7,2v7.3c0,0.8-0.1,2.7-1.1,2.7h0c-1.3,0-2.2-3-5.6-3
	h-0.4c-3,0.2-4.9,3.1-4.9,6.9s2.2,6.7,4.9,6.9l0.3,0c1.9,0,3.7-1.4,5.5-3c2.4-2.2,5.2-6.5,5.2-6.5v-2c0-1.6-1.7-2-1.7-2
	s2.6-0.2,4-0.9v2.4c0.7-0.7,2.4-2.4,4.4-2.4l0.5,0c1.8,0.2,2.9,1.1,3.2,1.8l-2,1.9c-0.1-2.4-1.4-3-2.4-3c-0.4,0-0.8,0.1-1,0.2
	c-3.2,1.3-6,6.9-8.8,9.7v1.1c0,1.5,1.7,2,1.7,2h-0.4c-1.9,0-3.6,1-3.6,1S104.1,22.1,104.1,22.1z M108.5,24.1c0,0,1.7-0.5,1.7-2l0-6
	c0,0,0.5-0.9,1.1-1.6c0.2-0.2,0.4-0.3,0.6-0.3c0.3,0,0.5,0.3,0.5,0.6v7.4c0,1.5,1.8,2,1.8,2H108.5z"/>
<path class="st0" d="M131.2,21.9c-0.9,1.2-2.2,2.2-4.4,2.2c-0.3,0-0.6,0-1-0.1c-2.4-0.3-4.1-2-4.1-3.8c0-0.2,0-0.4,0.1-0.6
	c0.7-2.9,3.9-3.3,6-4c0.8-0.2,3.3-0.6,3.3-1.5l0-0.4c0-1.4-0.4-3.9-3.1-4c-1.1,0-3.4,0.7-3.8,4.8l-2.1-1.1c1.4-3.4,4-4.1,5.8-4.1
	h0.1c4.9,0.1,5.2,3.8,5.2,5.6v5.5c0,0.3,0,0.9,0.1,1.4c0.1,0.5,0.3,1.1,0.8,1.2l0.1,0c0.2,0,0.5-0.1,0.9-0.2c0,0-0.8,1.2-2.5,1.2
	C132.1,24.1,131.3,23.7,131.2,21.9L131.2,21.9z M131.2,21.3v-6.4c-1.6,1.3-6.4,1.1-6.9,4.7V20c0,1.1,0.4,3.4,2.8,3.6h0.3
	C129,23.6,130.3,22.6,131.2,21.3L131.2,21.3z"/>
<path class="st0" d="M157.7,24.1c0,0,1.8-0.5,1.8-2v-5.3c0-3.8-0.5-6.8-4-6.9h-0.1c-1.7,0-3.6,0.8-4.8,2.7v9.5c0,1.5,1.8,2,1.8,2
	h-5.7c0,0,1.7-0.5,1.7-2v-9.8c0-1.6-1.8-2-1.8-2s2.7-0.1,4-0.9v2.4c1.1-1.4,2.7-2.4,4.9-2.4h0.3c4.8,0,5.9,3.3,5.9,7.3v5.3
	c0,1.5,1.8,2,1.8,2L157.7,24.1L157.7,24.1z"/>
<path class="st0" d="M164.6,16.8c0-4.1,3.3-7.4,7.4-7.4h0c2.1,0,5.2,1.1,5.3,3.4v0.1c0,0.9-0.9,1.6-2.3,2.1c-1.2,0.4-2.7,0.5-4,0.9
	c-2.1,0.7-2.4,2.6-2.4,3.6c0,0.4,0,0.6,0,0.6c-0.2-0.6-0.2-1.1-0.2-1.5c0-4.5,6.4-3.2,7-6l0-0.3c0-0.9-0.8-2.4-3.3-2.4H172
	c-2.5,0.2-4.2,2.2-4.7,5.1c-0.1,0.7-0.2,1.1-0.2,1.9c0,3.8,2.2,6.6,4.9,6.9l0.4,0c4.3,0,5.6-5.1,8.4-9.3v-2.1c0-1.6-1.8-2-1.8-2
	s2.7-0.2,4-0.9v2.2c0.5-0.7,2.3-2.2,4.5-2.2h0.4c1.8,0.2,2.9,1.1,3.2,1.8l-2,1.6v-0.3c0-1.8-1.1-2.6-2.1-2.6h-0.1
	c-2.3,0.1-3.9,2.2-4.6,3c-1.6,1.9-2.8,4.3-2.9,4.5c-1.8,3.3-3.4,6.6-7.5,6.6S164.6,20.8,164.6,16.8L164.6,16.8z M179,24.1
	c0,0,1.8-0.5,1.8-2v-5.8c0,0,0.5-1,1.2-1.7c0.2-0.2,0.4-0.3,0.6-0.3c0.3,0,0.5,0.3,0.5,0.6v7.2c0,1.5,1.7,2,1.7,2L179,24.1L179,24.1
	z"/>
<path class="st0" d="M192.4,24.1c0,0,1.8-0.5,1.8-2v-9.8c0-1.6-1.8-2-1.8-2s2.7-0.1,4-0.9V22c0,1.5,1.8,2,1.8,2H192.4z M193.7,6.2
	c0-0.7,0.6-1.3,1.3-1.3s1.3,0.6,1.3,1.3s-0.6,1.3-1.3,1.3S193.7,6.9,193.7,6.2z"/>
</svg>
