<?xml version="1.0" encoding="UTF-8"?>
<svg id="Layer_1" data-name="Layer 1" xmlns="http://www.w3.org/2000/svg" viewBox="0 0 51.72 6.34">
  <defs>
    <style>
      .cls-1 {
        fill: #fff5ee;
      }
    </style>
  </defs>
  <path class="cls-1" d="m0,4.4C0,3.33.87,2.46,1.94,2.46c.31,0,1.24.09,1.58,1.06l-.59.33v-.15c0-.9-.59-1.13-.93-1.13h-.05c-.79.06-1.3.81-1.3,1.82s.58,1.8,1.29,1.85h.07c.42,0,.88-.23,1.17-.62l.07.08c-.54.62-1.02.63-1.31.63-1.07,0-1.93-.87-1.93-1.93h0Z"/>
  <path class="cls-1" d="m6.48,5.77c-.07.09-.15.16-.19.19-.23.21-.53.38-.96.38-.08,0-.16,0-.25-.02-.64-.08-1.07-.51-1.07-.99,0-.06,0-.11.02-.17.16-.77.97-.98,1.56-1.06.22-.03.71-.07.9-.38.04-.07.07-.16.07-.28,0-.37-.23-.89-.82-.89h-.05c-.29,0-.87.27-.87,1.2v.06l-.61-.26c.21-.8,1.03-1.08,1.49-1.1h.06c.61,0,1.03.25,1.16.58.03.07.05.15.05.23,0,.33-.3.67-1.08.91-.51.16-1.11.33-1.2.98v.11c0,.3.11.88.73.93h.1c.32,0,.58-.15.85-.43.29-.32.8-1.2.85-1.27.32-.53.63-1.08.87-1.36.21-.21.59-.68,1.43-.68h.06c.24,0,1.13.13,1.44.94l-.55.35v-.11c0-.76-.48-1.02-.9-1.05h-.13c-.71,0-1.13.47-1.28.65-.21.25-.47.68-.59.87l-.48.82v.5c0,.13,0,.34.02.47.03.16.15.25.28.25,0,0-.17.19-.44.19-.22,0-.43-.11-.46-.57h0Zm3.04.57c-.96-.02-1.47-.67-1.63-1.05l.62-.38c.03,1.22.8,1.31,1,1.31.48,0,1.27-.19,1.27-.82v-.07c-.07-.78-2.02-.56-2.55-1.41h0c-.02-.06-.07-.19-.07-.33,0-.05,0-.1.02-.15.09-.24.32-.41.32-.41v.11c0,.17.04.3.11.39.51.63,2.47.37,2.56,1.57v.07c0,.65-.74,1.15-1.61,1.15h-.03Z"/>
  <path class="cls-1" d="m13.13,6.33c-.39,0-.78-.11-1.08-.29-.29-.18-.48-.5-.56-.76l.59-.29v.16c0,.96.84,1.05,1.04,1.06h.07c.47,0,1.19-.21,1.19-.82v-.07c-.07-.89-2.69-.47-2.69-1.9v-.02c.02-.54.59-.95,1.43-.95.33,0,.64.08.9.22.22.12.47.35.58.71l-.56.31c0-.07,0-.12,0-.18,0-.73-.64-.96-.93-.96h-.02c-.57,0-1,.24-1.02.61v.02c0,1.09,2.59.54,2.69,1.93v.06c0,.65-.73,1.15-1.59,1.15h-.04Z"/>
  <path class="cls-1" d="m17.56,5.75c-.24.32-.59.58-1.15.58-.08,0-.16,0-.25-.02-.64-.08-1.07-.51-1.07-.99,0-.06,0-.11.02-.17.17-.77,1.02-.87,1.57-1.05.21-.07.87-.17.88-.39v-.11c0-.38-.09-1.04-.8-1.05-.28,0-.89.19-1,1.27l-.56-.29c.38-.89,1.06-1.07,1.53-1.07h.03c1.29.02,1.38,1,1.38,1.46v1.45c0,.09,0,.24.02.38.02.13.08.29.22.32h.04c.07,0,.14-.02.24-.06,0,0-.21.32-.65.32-.21,0-.43-.11-.46-.58h0Zm0-.16v-1.68c-.42.35-1.68.28-1.81,1.25v.11c0,.29.11.89.73.94h.07c.42,0,.78-.26,1-.61h0Z"/>
  <path class="cls-1" d="m21.92,6.33s.47-.13.47-.54v-1.4c0-1-.12-1.79-1.05-1.82h-.02c-.45,0-.96.22-1.27.71v2.51c0,.41.47.54.47.54h-1.51s.46-.13.46-.54v-2.58c0-.41-.47-.52-.47-.52,0,0,.7-.04,1.05-.23v.63c.29-.38.72-.62,1.29-.63h.07c1.27,0,1.56.88,1.56,1.93v1.4c0,.41.47.54.47.54h-1.51Z"/>
  <path class="cls-1" d="m26.98,5.8s-.56.54-1.29.54c-1.07,0-1.93-.87-1.93-1.93s.87-1.94,1.93-1.94c.45,0,.82.16,1.11.41.03.03.09.07.12.07s.06-.02.06-.07V0c.35.19,1.05.23,1.05.23,0,0-.46.11-.46.52v1.93c0,.21-.02.7-.29.7h0c-.34,0-.58-.8-1.47-.8h-.11c-.78.05-1.3.81-1.3,1.82s.59,1.76,1.3,1.81h.09c.49,0,.98-.35,1.44-.77.64-.58,1.37-1.71,1.37-1.71v-.52c0-.41-.46-.52-.46-.52,0,0,.69-.05,1.05-.23v.62c.18-.19.63-.63,1.16-.63h.12c.48.07.76.28.85.48l-.52.49c-.02-.63-.36-.78-.63-.78-.11,0-.21.02-.27.05-.84.33-1.57,1.81-2.32,2.56v.3c0,.41.46.51.46.51h-.1c-.51,0-.95.27-.95.27v-.54Zm1.15.54s.46-.13.46-.54v-1.58s.13-.24.3-.42c.07-.07.11-.09.16-.09.07,0,.12.07.12.16v1.93c0,.41.47.54.47.54h-1.51Z"/>
  <path class="cls-1" d="m34.11,5.75c-.24.32-.59.58-1.15.58-.08,0-.16,0-.25-.02-.64-.08-1.07-.51-1.07-.99,0-.06,0-.11.02-.17.17-.77,1.02-.87,1.57-1.05.21-.07.87-.17.88-.39v-.11c0-.38-.09-1.04-.8-1.05-.28,0-.89.19-1,1.27l-.56-.29c.38-.89,1.06-1.07,1.53-1.07h.03c1.29.02,1.38,1,1.38,1.46v1.45c0,.09,0,.24.02.38.02.13.08.29.22.32h.04c.07,0,.14-.02.24-.06,0,0-.21.32-.65.32-.21,0-.43-.11-.46-.58h0Zm0-.16v-1.68c-.42.35-1.68.28-1.81,1.25v.11c0,.29.11.89.73.94h.07c.42,0,.78-.26,1-.61h0Z"/>
  <path class="cls-1" d="m41.08,6.33s.47-.13.47-.54v-1.4c0-1-.12-1.79-1.05-1.82h-.02c-.45,0-.96.22-1.27.71v2.51c0,.41.47.54.47.54h-1.51s.46-.13.46-.54v-2.58c0-.41-.47-.52-.47-.52,0,0,.7-.04,1.05-.23v.63c.29-.38.72-.62,1.29-.63h.07c1.27,0,1.56.88,1.56,1.93v1.4c0,.41.47.54.47.54h-1.51Z"/>
  <path class="cls-1" d="m42.92,4.41c0-1.07.87-1.93,1.93-1.93h0c.54,0,1.36.3,1.4.89v.02c0,.24-.24.42-.59.56-.32.11-.7.12-1.05.24-.56.19-.64.69-.64.95,0,.1,0,.16,0,.16-.04-.16-.06-.29-.06-.41,0-1.17,1.67-.83,1.85-1.58v-.07c0-.24-.21-.64-.87-.64h-.06c-.65.05-1.11.57-1.25,1.33-.03.19-.05.28-.05.49,0,1,.59,1.75,1.3,1.8h.11c1.13,0,1.48-1.35,2.21-2.43v-.56c0-.41-.47-.52-.47-.52,0,0,.7-.04,1.05-.23v.57c.13-.18.6-.58,1.18-.58h.1c.48.05.76.29.85.48l-.52.42v-.09c0-.47-.28-.68-.56-.68h-.02c-.59.02-1.04.59-1.21.8-.41.51-.73,1.13-.76,1.19-.47.86-.9,1.75-1.97,1.75s-1.93-.87-1.93-1.93h0Zm3.79,1.93s.47-.13.47-.54v-1.53s.12-.26.32-.45c.06-.06.11-.08.15-.08.07,0,.12.08.12.17v1.89c0,.41.46.54.46.54h-1.51Z"/>
  <path class="cls-1" d="m50.21,6.33s.47-.13.47-.54v-2.58c0-.41-.47-.52-.47-.52,0,0,.7-.04,1.05-.23v3.33c0,.41.47.54.47.54h-1.51Zm.34-4.72c0-.19.16-.34.34-.34s.34.16.34.34-.15.34-.34.34-.34-.16-.34-.34Z"/>
</svg>