<?xml version="1.0" encoding="utf-8"?>
<!-- Generator: Adobe Illustrator 27.4.1, SVG Export Plug-In . SVG Version: 6.00 Build 0)  -->
<svg version="1.1" id="Layer_1" xmlns="http://www.w3.org/2000/svg" xmlns:xlink="http://www.w3.org/1999/xlink" x="0px" y="0px"
	 viewBox="0 0 2191.6 334.8" style="enable-background:new 0 0 2191.6 334.8;" xml:space="preserve">
<style type="text/css">
	.st0{fill:#95827C;}
	.st1{font-family:'Abygaer-Abygaer';}
	.st2{font-size:39px;}
	.st3{letter-spacing:-2;}
	.st4{letter-spacing:-3;}
	.st5{letter-spacing:-1;}
	.st6{fill:#F8E1D5;}
	.st7{font-family:'MyriadPro-Regular';}
	.st8{font-size:12px;}
</style>
<text transform="matrix(1 0 0 1 657.8695 -423.0825)" class="st0 st1" style="font-size:123px; letter-spacing:-4;">i</text>
<text transform="matrix(1 0 0 1 680.6195 -423.0825)" class="st0 st1" style="font-size:123px;">th</text>
<text transform="matrix(1 0 0 1 0 319.98)" class="st0 st1 st2 st3">w</text>
<text transform="matrix(1 0 0 1 28.63 319.98)" class="st0 st1 st2">or</text>
<text transform="matrix(1 0 0 1 65.4 319.98)" class="st0 st1 st2">k</text>
<text transform="matrix(1 0 0 1 86.66 319.98)" class="st0 st1 st2">s done thr</text>
<text transform="matrix(1 0 0 1 264.07 319.98)" class="st0 st1 st2">o</text>
<text transform="matrix(1 0 0 1 283.37 319.98)" class="st0 st1 st2">ugh </text>
<text transform="matrix(1 0 0 1 360.4 319.98)" class="st0 st1 st2 st4">m</text>
<text transform="matrix(1 0 0 1 390.62 319.98)" class="st0 st1 st2">y i</text>
<text transform="matrix(1 0 0 1 434.61 319.98)" class="st0 st1 st2 st5">n</text>
<text transform="matrix(1 0 0 1 455.44 319.98)" class="st0 st1 st2 st5">te</text>
<text transform="matrix(1 0 0 1 466.4 319.98)" class="st0 st1 st2">rnship w</text>
<text transform="matrix(1 0 0 1 638.15 319.98)" class="st0 st1 st2 st5">i</text>
<text transform="matrix(1 0 0 1 645.37 319.98)" class="st0 st1 st2">th</text>
<text transform="matrix(1 0 0 1 680.62 319.98)" class="st6 st1 st2"> @refine</text>
<text transform="matrix(1 0 0 1 799.77 319.98)" class="st6 st1 st2 st5">r</text>
<text transform="matrix(1 0 0 1 833.07 319.98)" class="st6 st1 st2 st3">y</text>
<text transform="matrix(1 0 0 1 853.47 319.98)" class="st6 st1 st2">cr</text>
<text transform="matrix(1 0 0 1 888.61 319.98)" class="st6 st1 st2">e</text>
<text transform="matrix(1 0 0 1 907.79 319.98)" class="st6 st1 st2 st3">a</text>
<text transform="matrix(1 0 0 1 924.33 319.98)" class="st6 st1 st2">t</text>
<text transform="matrix(1 0 0 1 936.85 319.98)" class="st6 st1 st2 st5">i</text>
<text transform="matrix(1 0 0 1 944.06 319.98)" class="st6 st1 st2 st3">v</text>
<text transform="matrix(1 0 0 1 964.5 319.98)" class="st6 st1 st2">e</text>
<text transform="matrix(1 0 0 1 100.5972 57.0542)" class="st7 st8">Professional Work</text>
</svg>
